<svg xmlns="http://www.w3.org/2000/svg"  viewBox="0 0 100 100" width="100px" height="100px"><path d="M 34.720703 10.841797 A 1.0001 1.0001 0 0 0 34.109375 11.048828 C 21.314178 20.891365 4.3300781 36.232422 4.3300781 36.232422 A 1.0001 1.0001 0 0 0 4.3066406 37.693359 C 4.3066406 37.693359 8.1325599 41.360816 13.931641 46.759766 A 1.0001 1.0001 0 0 0 13.900391 47.072266 C 13.900391 47.072266 14.137964 51.799827 15.234375 66.322266 A 1.0001 1.0001 0 0 0 15.476562 66.904297 C 15.476562 66.904297 21.904196 74.289626 34.5 89.349609 A 1.0004141 1.0004141 0 0 0 34.505859 89.355469 A 1.0001 1.0001 0 0 0 34.544922 89.398438 A 1.0004141 1.0004141 0 0 0 34.572266 89.427734 A 1.0001 1.0001 0 0 0 34.605469 89.457031 A 1.0004141 1.0004141 0 0 0 34.654297 89.498047 A 1.0001 1.0001 0 0 0 34.65625 89.5 A 1.0001 1.0001 0 0 0 34.800781 89.591797 A 1.0004141 1.0004141 0 0 0 34.816406 89.599609 A 1.0001 1.0001 0 0 0 34.826172 89.605469 A 1.0004141 1.0004141 0 0 0 34.902344 89.638672 A 1.0001 1.0001 0 0 0 34.964844 89.660156 A 1.0004141 1.0004141 0 0 0 35.09375 89.693359 A 1.0001 1.0001 0 0 0 35.392578 89.701172 A 1.0004141 1.0004141 0 0 0 35.394531 89.701172 A 1.0001 1.0001 0 0 0 35.455078 89.691406 C 45.261375 87.818081 54.736172 85.252348 62.669922 82.835938 L 69.402344 88.953125 A 1.0001 1.0001 0 0 0 70.431641 89.146484 L 84.125 83.912109 A 1.0001 1.0001 0 0 0 84.380859 82.1875 L 78.460938 77.595703 C 81.234977 76.58931 82.884766 75.943359 82.884766 75.943359 A 1.0001 1.0001 0 0 0 83.515625 75.046875 C 84.173087 55.592698 85.68119 40.847476 85.798828 39.714844 C 88.103117 41.153341 90.505621 42.643633 93.089844 44.222656 A 1.0001 1.0001 0 1 0 94.132812 42.517578 C 82.179199 35.213628 73.211992 29.347703 68.298828 26.082031 C 68.193051 25.271962 68.191378 24.409453 68.193359 23.503906 C 68.201359 20.406121 68.21075 17.3072 68.21875 14.208984 A 1.0001 1.0001 0 0 0 68.175781 13.90625 A 1.0001 1.0001 0 0 0 67.371094 13.005859 C 66.497158 12.846602 65.262085 12.262977 64.054688 11.654297 C 64.121758 11.688137 63.919605 11.380996 63.261719 11.1875 C 62.783147 11.046636 62.408217 11.122407 62.183594 11.154297 L 62.181641 11.154297 C 59.909346 11.472922 57.640064 11.820445 55.375 12.193359 A 1.0001 1.0001 0 0 0 55.318359 12.193359 A 1.0001 1.0001 0 0 0 54.380859 12.996094 A 1.0001 1.0001 0 0 0 54.376953 13.011719 A 1.0001 1.0001 0 0 0 54.365234 13.091797 A 1.0001 1.0001 0 0 0 54.361328 13.128906 A 1.0001 1.0001 0 0 0 54.361328 13.132812 C 54.360643 13.142087 54.360056 13.152816 54.359375 13.162109 A 1.0001 1.0001 0 0 0 54.357422 13.203125 C 54.227575 14.998356 54.192612 17.131371 54.296875 19.076172 L 35.109375 10.921875 A 1.0001 1.0001 0 0 0 34.720703 10.841797 z M 34.886719 13 L 61.626953 24.363281 C 59.624275 26.202379 57.528398 28.063752 55.400391 29.917969 C 42.680747 22.98686 31.666008 17.458222 30.185547 16.716797 C 31.776185 15.434182 33.355346 14.184048 34.886719 13 z M 66.216797 15.007812 C 66.209287 17.837894 66.200668 20.667458 66.193359 23.498047 C 66.192507 23.887457 66.194347 24.29061 66.203125 24.697266 C 64.919426 23.836402 64.123731 23.293128 64.103516 23.279297 A 1.0001 1.0001 0 0 0 64.099609 23.275391 C 64.099352 23.275215 64.044922 23.240234 64.044922 23.240234 A 1.0001 1.0001 0 0 0 63.958984 23.1875 A 1.0001 1.0001 0 0 0 63.871094 23.144531 L 63.869141 23.144531 L 59.917969 21.464844 C 59.802432 19.905389 59.970333 17.590638 59.931641 15.525391 C 59.931641 15.525391 59.933594 15.525391 59.933594 15.525391 C 60.135954 15.510951 60.394124 15.486851 60.699219 15.457031 C 61.309409 15.397401 62.105932 15.312484 62.943359 15.230469 C 64.170258 15.110309 65.360019 15.034706 66.216797 15.007812 z M 28.496094 18.101562 C 28.864265 18.285504 40.68554 24.202489 53.771484 31.314453 C 51.832993 32.985445 49.907171 34.621123 47.978516 36.230469 C 36.056773 29.240612 25.155733 22.447378 24.060547 21.763672 C 25.528414 20.535706 27.002136 19.320288 28.496094 18.101562 z M 22.449219 23.117188 C 22.748246 23.304061 34.172244 30.433296 46.345703 37.585938 C 44.280703 39.295549 42.293852 40.921103 40.371094 42.472656 C 29.312744 34.877334 18.80421 27.675727 17.855469 27.025391 C 19.322812 25.76424 20.854183 24.461864 22.449219 23.117188 z M 16.287109 28.373047 C 16.826208 28.742637 27.708882 36.203585 38.748047 43.785156 C 36.560068 45.539872 34.551029 47.132252 32.759766 48.537109 C 21.810864 39.563511 13.273608 33.31817 11.830078 32.269531 C 13.202231 31.062915 14.547413 29.877251 16.287109 28.373047 z M 63.181641 29.810547 C 63.460055 29.828566 64.147516 30.282187 64.509766 30.492188 C 67.468766 32.208188 70.311641 34.133141 73.181641 35.994141 C 76.588851 38.203178 79.986983 40.458325 83.535156 42.4375 C 83.038707 47.921006 82.067771 59.798314 81.556641 74.291016 C 81.325303 74.38186 79.696408 75.012767 77.072266 75.957031 L 77.763672 54.908203 A 1.0001 1.0001 0 0 0 76.767578 53.875 A 1.0001 1.0001 0 0 0 76.546875 53.898438 C 71.095893 55.119385 63.839844 56.505859 63.839844 56.505859 A 1.0001 1.0001 0 0 0 63.029297 57.462891 L 62.404297 80.798828 C 54.839646 83.103771 45.768 85.577223 36.238281 87.457031 C 36.21349 85.715627 35.96643 69.713578 35.009766 54.029297 C 43.832796 46.617273 50.469238 39.880091 56.560547 34.871094 C 58.684547 33.125094 60.973844 31.577078 63.089844 29.830078 C 63.110844 29.812828 63.141867 29.807973 63.181641 29.810547 z M 10.287109 33.617188 C 10.830161 34.009845 19.74509 40.477223 31.142578 49.800781 C 27.835744 52.377862 25.516671 54.1417 25.189453 54.388672 C 14.446409 44.62026 7.0974184 37.577974 6.4902344 36.994141 C 6.8337913 36.684712 8.2786049 35.392059 10.287109 33.617188 z M 57.013672 52.785156 A 1.0001 1.0001 0 0 0 56.837891 52.806641 L 42.525391 55.820312 A 1.0001 1.0001 0 0 0 41.730469 56.824219 C 41.730469 56.824219 42.072654 69.659192 42.279297 75.154297 A 1.0001 1.0001 0 0 0 43.482422 76.095703 C 43.482422 76.095703 51.368479 74.451537 57.322266 72.720703 A 1.0001 1.0001 0 0 0 58.042969 71.761719 L 58.042969 53.785156 A 1.0001 1.0001 0 0 0 57.013672 52.785156 z M 54.986328 55.240234 L 55.042969 60.509766 C 54.018477 60.752091 52.582859 61.064234 51.011719 61.396484 C 50.958859 59.519196 50.890417 56.161423 50.888672 56.103516 L 54.986328 55.240234 z M 75.724609 56.109375 L 75.048828 76.667969 C 72.227667 77.660032 68.640735 78.857579 64.421875 80.173828 L 65.005859 58.308594 C 65.732087 58.169285 70.886203 57.157374 75.724609 56.109375 z M 48.898438 56.521484 C 48.905237 56.748307 48.966318 59.855908 49.021484 61.839844 C 46.361798 62.378191 44.392319 62.757382 43.912109 62.849609 C 43.862129 61.044887 43.764508 57.928733 43.755859 57.605469 L 48.898438 56.521484 z M 55.064453 62.546875 L 55.146484 70.113281 C 54.205382 70.441843 52.767072 70.819394 51.242188 71.193359 C 51.211552 68.963208 51.145452 66.655359 51.058594 63.433594 C 52.613795 63.112754 53.963 62.813745 55.064453 62.546875 z M 49.068359 63.869141 C 49.156115 67.17003 49.227739 69.588796 49.253906 71.664062 C 46.645526 72.26341 44.579217 72.690265 44.207031 72.765625 C 44.121368 70.184053 44.062808 68.066762 43.972656 64.873047 C 44.20465 64.828577 46.453596 64.395366 49.068359 63.869141 z M 72.794922 65.966797 C 72.694297 65.970047 72.593391 65.986828 72.494141 66.017578 C 72.059141 66.155578 71.84825 66.499375 71.78125 66.609375 C 71.46825 67.118375 71.581781 67.542047 71.675781 67.748047 C 71.843781 68.120047 72.206141 68.368484 72.619141 68.396484 C 72.645141 68.397484 72.669313 68.398438 72.695312 68.398438 C 73.097313 68.398438 73.484219 68.189656 73.699219 67.847656 C 73.760219 67.749656 73.803031 67.650688 73.832031 67.554688 C 73.867031 67.489688 73.894063 67.421656 73.914062 67.347656 C 74.010063 66.994656 73.880188 66.537203 73.617188 66.283203 C 73.392938 66.067953 73.096797 65.957047 72.794922 65.966797 z M 76.251953 78.416016 L 81.75 82.677734 L 70.292969 87.058594 L 64.884766 82.144531 C 69.319236 80.75858 73.107628 79.490721 76.078125 78.441406 A 1.0001 1.0001 0 0 0 76.251953 78.416016 z"/></svg>